<svg xmlns="http://www.w3.org/2000/svg" xmlns:xlink="http://www.w3.org/1999/xlink" width="80" zoomAndPan="magnify" viewBox="0 0 60 52.499999" height="70" preserveAspectRatio="xMidYMid meet" version="1.0"><defs><g/><clipPath id="9f1338ea3b"><path d="M 0.824219 27.113281 L 59.207031 27.113281 L 59.207031 43.027344 L 0.824219 43.027344 Z M 0.824219 27.113281 " clip-rule="nonzero"/></clipPath><clipPath id="42dab89bd2"><path d="M 57.066406 27.113281 L 2.933594 27.113281 L 0.824219 29.222656 L 0.824219 40.917969 L 2.933594 43.027344 L 57.066406 43.027344 L 59.175781 40.917969 L 59.175781 29.222656 Z M 57.066406 27.113281 " clip-rule="nonzero"/></clipPath><clipPath id="70596ef9f1"><path d="M 0.824219 27.113281 L 59.238281 27.113281 L 59.238281 42.714844 L 0.824219 42.714844 Z M 0.824219 27.113281 " clip-rule="nonzero"/></clipPath><clipPath id="d3093d6773"><path d="M 57.058594 27.113281 L 2.933594 27.113281 L 0.824219 29.222656 L 0.824219 40.917969 L 2.933594 43.027344 L 57.058594 43.027344 L 59.167969 40.917969 L 59.167969 29.222656 Z M 57.058594 27.113281 " clip-rule="nonzero"/></clipPath><clipPath id="2dd3efc2fe"><path d="M 8.6875 0 L 51.035156 0 L 51.035156 25.257812 L 8.6875 25.257812 Z M 8.6875 0 " clip-rule="nonzero"/></clipPath><clipPath id="066d3d2683"><path d="M 15.132812 6.425781 L 44.847656 6.425781 L 44.847656 25.742188 L 15.132812 25.742188 Z M 15.132812 6.425781 " clip-rule="nonzero"/></clipPath><clipPath id="bf5fb67ab0"><path d="M 6.058594 45.160156 L 8.289062 45.160156 L 8.289062 47.386719 L 6.058594 47.386719 Z M 6.058594 45.160156 " clip-rule="nonzero"/></clipPath><clipPath id="92190b9103"><path d="M 51.269531 45.160156 L 53.5 45.160156 L 53.5 47.386719 L 51.269531 47.386719 Z M 51.269531 45.160156 " clip-rule="nonzero"/></clipPath><clipPath id="caad3e03ff"><path d="M 32 9.128906 L 34 9.128906 L 34 15 L 32 15 Z M 32 9.128906 " clip-rule="nonzero"/></clipPath><clipPath id="244be6a16a"><path d="M 26 9.128906 L 28 9.128906 L 28 15 L 26 15 Z M 26 9.128906 " clip-rule="nonzero"/></clipPath><clipPath id="3bf9f28826"><path d="M 22 9.128906 L 37 9.128906 L 37 17 L 22 17 Z M 22 9.128906 " clip-rule="nonzero"/></clipPath><clipPath id="a3ccbd5c86"><path d="M 29 9.128906 L 31 9.128906 L 31 15 L 29 15 Z M 29 9.128906 " clip-rule="nonzero"/></clipPath><clipPath id="b7802fbd3b"><path d="M 22 18 L 38 18 L 38 25.472656 L 22 25.472656 Z M 22 18 " clip-rule="nonzero"/></clipPath><clipPath id="aaf059edc5"><path d="M 21.816406 17 L 38.164062 17 L 38.164062 18 L 21.816406 18 Z M 21.816406 17 " clip-rule="nonzero"/></clipPath></defs><g clip-path="url(#9f1338ea3b)"><g clip-path="url(#42dab89bd2)"><path fill="#ff914d" d="M 0.824219 27.113281 L 59.207031 27.113281 L 59.207031 43.027344 L 0.824219 43.027344 Z M 0.824219 27.113281 " fill-opacity="1" fill-rule="nonzero"/></g></g><g clip-path="url(#70596ef9f1)"><g clip-path="url(#d3093d6773)"><path stroke-linecap="butt" transform="matrix(0.742924, 0, 0, 0.742924, 0.823333, 27.112283)" fill="none" stroke-linejoin="miter" d="M 75.694451 0.00134332 L 2.840478 0.00134332 L 0.00119169 2.840629 L 0.00119169 18.582892 L 2.840478 21.422178 L 75.694451 21.422178 L 78.533737 18.582892 L 78.533737 2.840629 Z M 75.694451 0.00134332 " stroke="#2a3472" stroke-width="4" stroke-opacity="1" stroke-miterlimit="4"/></g></g><g fill="#2a3472" fill-opacity="1"><g transform="translate(15.425843, 48.044306)"><g><path d="M 0.300781 -3.3125 L 0.300781 0 L 1.226562 0 L 1.226562 -3.3125 Z M 0.300781 -3.3125 "/></g></g></g><g fill="#2a3472" fill-opacity="1"><g transform="translate(17.458883, 48.044306)"><g><path d="M 0.300781 0 L 1.226562 0 L 1.226562 -1.726562 L 2.703125 0 L 3.417969 0 L 3.417969 -3.3125 L 2.5 -3.3125 L 2.5 -1.585938 L 1.015625 -3.3125 L 0.300781 -3.3125 Z M 0.300781 0 "/></g></g></g><g fill="#2a3472" fill-opacity="1"><g transform="translate(21.689574, 48.044306)"><g><path d="M 0.300781 0 L 2.011719 0 C 2.949219 0 3.625 -0.660156 3.625 -1.660156 C 3.625 -2.664062 2.949219 -3.3125 2.011719 -3.3125 L 0.300781 -3.3125 Z M 1.226562 -0.824219 L 1.226562 -2.488281 L 1.84375 -2.488281 C 2.351562 -2.488281 2.699219 -2.191406 2.699219 -1.660156 C 2.699219 -1.125 2.351562 -0.824219 1.84375 -0.824219 Z M 1.226562 -0.824219 "/></g></g></g><g fill="#2a3472" fill-opacity="1"><g transform="translate(25.99409, 48.044306)"><g><path d="M 0.300781 -1.324219 C 0.300781 -0.351562 0.914062 0.0742188 1.863281 0.0742188 C 2.8125 0.0742188 3.417969 -0.386719 3.417969 -1.324219 L 3.417969 -3.3125 L 2.5 -3.3125 L 2.5 -1.324219 C 2.5 -0.9375 2.25 -0.75 1.863281 -0.75 C 1.476562 -0.75 1.226562 -0.929688 1.226562 -1.324219 L 1.226562 -3.3125 L 0.300781 -3.3125 Z M 0.300781 -1.324219 "/></g></g></g><g fill="#2a3472" fill-opacity="1"><g transform="translate(30.224781, 48.044306)"><g><path d="M 2.628906 -3.125 C 2.335938 -3.304688 1.988281 -3.390625 1.480469 -3.390625 C 0.691406 -3.390625 0.246094 -3 0.246094 -2.375 C 0.246094 -1.777344 0.589844 -1.5 1.136719 -1.351562 L 1.675781 -1.210938 C 1.890625 -1.152344 1.964844 -1.0625 1.964844 -0.9375 C 1.964844 -0.796875 1.855469 -0.703125 1.566406 -0.703125 C 1.097656 -0.703125 0.660156 -0.804688 0.246094 -1.035156 L 0.246094 -0.210938 C 0.550781 -0.0273438 0.988281 0.0742188 1.542969 0.0742188 C 2.476562 0.0742188 2.890625 -0.363281 2.890625 -0.9375 C 2.890625 -1.523438 2.617188 -1.792969 1.980469 -1.964844 L 1.472656 -2.105469 C 1.253906 -2.164062 1.167969 -2.261719 1.167969 -2.375 C 1.167969 -2.527344 1.292969 -2.605469 1.617188 -2.605469 C 1.90625 -2.605469 2.277344 -2.53125 2.628906 -2.363281 Z M 2.628906 -3.125 "/></g></g></g><g fill="#2a3472" fill-opacity="1"><g transform="translate(33.745636, 48.044306)"><g><path d="M 0.046875 -3.3125 L 0.046875 -2.488281 L 1.039062 -2.488281 L 1.039062 0 L 1.964844 0 L 1.964844 -2.488281 L 2.957031 -2.488281 L 2.957031 -3.3125 Z M 0.046875 -3.3125 "/></g></g></g><g fill="#2a3472" fill-opacity="1"><g transform="translate(37.255136, 48.044306)"><g><path d="M 0.300781 0 L 1.226562 0 L 1.226562 -1.25 L 1.664062 -1.25 L 2.179688 0 L 3.144531 0 L 2.554688 -1.429688 C 2.8125 -1.605469 2.949219 -1.90625 2.949219 -2.28125 C 2.949219 -2.90625 2.566406 -3.3125 1.902344 -3.3125 L 0.300781 -3.3125 Z M 1.226562 -1.976562 L 1.226562 -2.59375 L 1.699219 -2.59375 C 1.90625 -2.59375 2.023438 -2.5 2.023438 -2.28125 C 2.023438 -2.066406 1.90625 -1.976562 1.699219 -1.976562 Z M 1.226562 -1.976562 "/></g></g></g><g fill="#2a3472" fill-opacity="1"><g transform="translate(40.96339, 48.044306)"><g><path d="M 0.046875 -3.3125 L 1.339844 -0.949219 L 1.339844 0 L 2.265625 0 L 2.265625 -0.949219 L 3.5625 -3.3125 L 2.511719 -3.3125 L 1.804688 -1.828125 L 1.128906 -3.3125 Z M 0.046875 -3.3125 "/></g></g></g><path stroke-linecap="round" transform="matrix(0.742924, 0, 0, 0.742924, 12.879526, 49.503452)" fill="none" stroke-linejoin="miter" d="M 0.498669 0.500116 L 45.590736 0.500116 " stroke="#2a3472" stroke-width="1" stroke-opacity="1" stroke-miterlimit="4"/><g clip-path="url(#2dd3efc2fe)"><path fill="#2a3472" d="M 29.984375 37.679688 C 20.953125 37.679688 13.605469 30.328125 13.605469 21.296875 C 13.605469 12.265625 20.953125 4.914062 29.984375 4.914062 C 39.015625 4.914062 46.367188 12.265625 46.367188 21.296875 C 46.367188 30.328125 39.015625 37.679688 29.984375 37.679688 Z M 47.789062 21.296875 C 47.789062 21.085938 47.78125 20.878906 47.773438 20.667969 L 51.28125 19.632812 C 51.222656 18.875 51.125 18.128906 50.988281 17.390625 L 47.335938 17.296875 C 47.238281 16.886719 47.136719 16.480469 47.011719 16.082031 L 50.128906 14.175781 C 49.875 13.464844 49.585938 12.765625 49.261719 12.089844 L 45.710938 12.945312 C 45.511719 12.574219 45.300781 12.210938 45.078125 11.855469 L 47.59375 9.210938 C 47.164062 8.589844 46.703125 7.992188 46.210938 7.417969 L 43.007812 9.160156 C 42.722656 8.855469 42.425781 8.558594 42.121094 8.273438 L 43.863281 5.070312 C 43.289062 4.578125 42.691406 4.117188 42.070312 3.691406 L 39.425781 6.203125 C 39.070312 5.980469 38.707031 5.769531 38.339844 5.570312 L 39.191406 2.019531 C 38.515625 1.695312 37.820312 1.40625 37.105469 1.15625 L 35.199219 4.269531 C 34.800781 4.148438 34.394531 4.042969 33.984375 3.949219 L 33.890625 0.292969 C 33.15625 0.15625 32.40625 0.0625 31.648438 0 L 30.613281 3.507812 C 30.402344 3.5 30.195312 3.492188 29.984375 3.492188 C 29.777344 3.492188 29.566406 3.5 29.359375 3.507812 L 28.320312 0 C 27.5625 0.0625 26.816406 0.15625 26.082031 0.292969 L 25.988281 3.949219 C 25.578125 4.042969 25.171875 4.148438 24.773438 4.269531 L 22.867188 1.15625 C 22.152344 1.40625 21.453125 1.695312 20.777344 2.019531 L 21.632812 5.570312 C 21.261719 5.769531 20.898438 5.980469 20.546875 6.203125 L 17.898438 3.691406 C 17.277344 4.117188 16.679688 4.578125 16.109375 5.070312 L 17.847656 8.273438 C 17.542969 8.558594 17.246094 8.855469 16.960938 9.160156 L 13.757812 7.417969 C 13.269531 7.992188 12.804688 8.589844 12.378906 9.210938 L 14.890625 11.855469 C 14.667969 12.210938 14.457031 12.574219 14.261719 12.945312 L 10.707031 12.089844 C 10.382812 12.765625 10.097656 13.464844 9.84375 14.175781 L 12.957031 16.082031 C 12.835938 16.480469 12.730469 16.886719 12.636719 17.296875 L 8.984375 17.390625 C 8.847656 18.128906 8.75 18.875 8.691406 19.632812 L 12.195312 20.667969 C 12.1875 20.878906 12.179688 21.085938 12.179688 21.296875 C 12.179688 21.507812 12.1875 21.714844 12.195312 21.925781 L 8.691406 22.960938 C 8.75 23.71875 8.847656 24.464844 8.984375 25.203125 L 12.636719 25.296875 C 12.730469 25.707031 12.835938 26.113281 12.957031 26.511719 L 9.84375 28.417969 C 10.097656 29.128906 10.382812 29.828125 10.707031 30.503906 L 14.261719 29.648438 C 14.457031 30.019531 14.667969 30.382812 14.890625 30.738281 L 12.378906 33.382812 C 12.804688 34.003906 13.269531 34.601562 13.757812 35.175781 L 16.960938 33.433594 C 17.246094 33.738281 17.542969 34.035156 17.847656 34.320312 L 16.109375 37.523438 C 16.679688 38.011719 17.277344 38.476562 17.898438 38.902344 L 20.546875 36.390625 C 20.898438 36.613281 21.261719 36.824219 21.632812 37.023438 L 20.777344 40.574219 C 21.453125 40.898438 22.152344 41.1875 22.867188 41.4375 L 24.773438 38.324219 C 25.171875 38.445312 25.578125 38.550781 25.988281 38.644531 L 26.082031 42.300781 C 26.816406 42.4375 27.5625 42.53125 28.320312 42.59375 L 29.359375 39.085938 C 29.566406 39.09375 29.777344 39.101562 29.984375 39.101562 C 30.195312 39.101562 30.402344 39.09375 30.613281 39.085938 L 31.648438 42.59375 C 32.40625 42.53125 33.15625 42.4375 33.890625 42.300781 L 33.984375 38.644531 C 34.394531 38.550781 34.800781 38.445312 35.199219 38.324219 L 37.105469 41.4375 C 37.820312 41.1875 38.515625 40.898438 39.191406 40.574219 L 38.339844 37.023438 C 38.707031 36.824219 39.070312 36.613281 39.425781 36.390625 L 42.070312 38.902344 C 42.691406 38.476562 43.289062 38.011719 43.863281 37.523438 L 42.121094 34.320312 C 42.425781 34.035156 42.722656 33.738281 43.007812 33.433594 L 46.210938 35.175781 C 46.703125 34.601562 47.164062 34.003906 47.59375 33.382812 L 45.082031 30.738281 C 45.300781 30.382812 45.511719 30.019531 45.710938 29.648438 L 49.261719 30.503906 C 49.585938 29.828125 49.875 29.128906 50.128906 28.417969 L 47.011719 26.511719 C 47.136719 26.113281 47.242188 25.707031 47.335938 25.296875 L 50.988281 25.203125 C 51.125 24.464844 51.222656 23.71875 51.28125 22.960938 L 47.773438 21.925781 C 47.78125 21.714844 47.789062 21.507812 47.789062 21.296875 " fill-opacity="1" fill-rule="nonzero"/></g><g clip-path="url(#066d3d2683)"><path fill="#2a3472" d="M 29.996094 36.152344 C 21.785156 36.152344 15.132812 29.453125 15.132812 21.289062 C 15.132812 13.121094 21.785156 6.425781 29.996094 6.425781 C 38.207031 6.425781 44.859375 13.078125 44.859375 21.289062 C 44.859375 29.5 38.164062 36.152344 29.996094 36.152344 Z M 29.996094 7.34375 C 22.289062 7.34375 16.050781 13.582031 16.050781 21.289062 C 16.050781 28.996094 22.289062 35.234375 29.996094 35.234375 C 37.703125 35.234375 43.945312 28.996094 43.945312 21.289062 C 43.945312 13.582031 37.65625 7.34375 29.996094 7.34375 Z M 29.996094 7.34375 " fill-opacity="1" fill-rule="nonzero"/></g><g clip-path="url(#bf5fb67ab0)"><path fill="#2a3472" d="M 8.183594 46.222656 C 8.183594 46.363281 8.15625 46.496094 8.101562 46.628906 C 8.046875 46.757812 7.972656 46.871094 7.871094 46.972656 C 7.773438 47.070312 7.65625 47.148438 7.527344 47.203125 C 7.398438 47.257812 7.261719 47.285156 7.121094 47.285156 C 6.980469 47.285156 6.84375 47.257812 6.714844 47.203125 C 6.585938 47.148438 6.46875 47.070312 6.371094 46.972656 C 6.269531 46.871094 6.195312 46.757812 6.140625 46.628906 C 6.085938 46.496094 6.058594 46.363281 6.058594 46.222656 C 6.058594 46.082031 6.085938 45.945312 6.140625 45.816406 C 6.195312 45.683594 6.269531 45.570312 6.371094 45.46875 C 6.46875 45.371094 6.585938 45.292969 6.714844 45.238281 C 6.84375 45.1875 6.980469 45.160156 7.121094 45.160156 C 7.261719 45.160156 7.398438 45.1875 7.527344 45.238281 C 7.65625 45.292969 7.773438 45.371094 7.871094 45.46875 C 7.972656 45.570312 8.046875 45.683594 8.101562 45.816406 C 8.15625 45.945312 8.183594 46.082031 8.183594 46.222656 Z M 8.183594 46.222656 " fill-opacity="1" fill-rule="nonzero"/></g><g clip-path="url(#92190b9103)"><path fill="#2a3472" d="M 53.394531 46.222656 C 53.394531 46.363281 53.367188 46.496094 53.316406 46.628906 C 53.261719 46.757812 53.183594 46.871094 53.085938 46.972656 C 52.984375 47.070312 52.871094 47.148438 52.738281 47.203125 C 52.609375 47.257812 52.472656 47.285156 52.332031 47.285156 C 52.191406 47.285156 52.058594 47.257812 51.925781 47.203125 C 51.796875 47.148438 51.683594 47.070312 51.582031 46.972656 C 51.484375 46.871094 51.40625 46.757812 51.351562 46.628906 C 51.296875 46.496094 51.269531 46.363281 51.269531 46.222656 C 51.269531 46.082031 51.296875 45.945312 51.351562 45.816406 C 51.40625 45.683594 51.484375 45.570312 51.582031 45.46875 C 51.683594 45.371094 51.796875 45.292969 51.925781 45.238281 C 52.058594 45.1875 52.191406 45.160156 52.332031 45.160156 C 52.472656 45.160156 52.609375 45.1875 52.738281 45.238281 C 52.871094 45.292969 52.984375 45.371094 53.085938 45.46875 C 53.183594 45.570312 53.261719 45.683594 53.316406 45.816406 C 53.367188 45.945312 53.394531 46.082031 53.394531 46.222656 Z M 53.394531 46.222656 " fill-opacity="1" fill-rule="nonzero"/></g><g fill="#ffffff" fill-opacity="1"><g transform="translate(15.919375, 39.969105)"><g><path d="M 5.609375 -7.984375 C 5.609375 -9.125 5 -9.734375 3.859375 -9.734375 L 0.804688 -9.734375 C 0.679688 -9.734375 0.609375 -9.660156 0.609375 -9.539062 L 0.609375 -0.195312 C 0.609375 -0.0742188 0.679688 0 0.804688 0 L 2.070312 0 C 2.191406 0 2.261719 -0.0742188 2.261719 -0.195312 L 2.261719 -3.261719 L 3.101562 -3.261719 L 3.917969 -0.171875 C 3.941406 -0.0625 4.003906 0 4.125 0 L 5.390625 0 C 5.523438 0 5.597656 -0.0742188 5.5625 -0.21875 L 4.722656 -3.40625 C 5.304688 -3.664062 5.609375 -4.199219 5.609375 -5.011719 Z M 2.261719 -4.867188 L 2.261719 -8.128906 L 3.46875 -8.128906 C 3.785156 -8.128906 3.953125 -7.957031 3.953125 -7.640625 L 3.953125 -5.355469 C 3.953125 -5.039062 3.785156 -4.867188 3.46875 -4.867188 Z M 2.261719 -4.867188 "/></g></g></g><g fill="#ffffff" fill-opacity="1"><g transform="translate(22.745683, 39.969105)"><g><path d="M 6.472656 0 C 6.621094 0 6.667969 -0.0742188 6.644531 -0.207031 L 4.625 -9.566406 C 4.601562 -9.6875 4.527344 -9.734375 4.417969 -9.734375 L 2.726562 -9.734375 C 2.617188 -9.734375 2.542969 -9.6875 2.519531 -9.566406 L 0.5 -0.207031 C 0.460938 -0.0742188 0.523438 0 0.65625 0 L 1.960938 0 C 2.070312 0 2.128906 -0.0625 2.152344 -0.171875 L 2.484375 -1.945312 L 4.648438 -1.945312 L 4.988281 -0.171875 C 5.011719 -0.0625 5.074219 0 5.183594 0 Z M 4.34375 -3.359375 L 2.785156 -3.359375 L 3.566406 -7.605469 Z M 4.34375 -3.359375 "/></g></g></g><g fill="#ffffff" fill-opacity="1"><g transform="translate(30.484585, 39.969105)"><g><path d="M 0.902344 -9.734375 C 0.777344 -9.722656 0.707031 -9.660156 0.707031 -9.527344 L 0.707031 -8.3125 C 0.707031 -8.191406 0.777344 -8.117188 0.902344 -8.117188 L 3.417969 -8.117188 L 0.390625 -0.292969 C 0.316406 -0.121094 0.378906 0 0.570312 0 L 5.304688 0 C 5.425781 -0.0117188 5.5 -0.0859375 5.5 -0.207031 L 5.5 -1.410156 C 5.5 -1.546875 5.425781 -1.605469 5.304688 -1.605469 L 2.628906 -1.605469 L 5.660156 -9.441406 C 5.71875 -9.613281 5.671875 -9.734375 5.476562 -9.734375 Z M 0.902344 -9.734375 "/></g></g></g><g fill="#ffffff" fill-opacity="1"><g transform="translate(37.262223, 39.969105)"><g><path d="M 6.472656 0 C 6.621094 0 6.667969 -0.0742188 6.644531 -0.207031 L 4.625 -9.566406 C 4.601562 -9.6875 4.527344 -9.734375 4.417969 -9.734375 L 2.726562 -9.734375 C 2.617188 -9.734375 2.542969 -9.6875 2.519531 -9.566406 L 0.5 -0.207031 C 0.460938 -0.0742188 0.523438 0 0.65625 0 L 1.960938 0 C 2.070312 0 2.128906 -0.0625 2.152344 -0.171875 L 2.484375 -1.945312 L 4.648438 -1.945312 L 4.988281 -0.171875 C 5.011719 -0.0625 5.074219 0 5.183594 0 Z M 4.34375 -3.359375 L 2.785156 -3.359375 L 3.566406 -7.605469 Z M 4.34375 -3.359375 "/></g></g></g><path stroke-linecap="round" transform="matrix(0.742924, 0, 0, 0.742924, 17.120821, 51.176865)" fill="none" stroke-linejoin="miter" d="M 0.499871 0.498045 L 34.171699 0.498045 " stroke="#2a3472" stroke-width="1" stroke-opacity="1" stroke-miterlimit="4"/><g clip-path="url(#caad3e03ff)"><path fill="#2a3472" d="M 33.0625 14.96875 C 33.183594 14.96875 33.285156 14.925781 33.371094 14.839844 C 33.457031 14.753906 33.5 14.652344 33.5 14.53125 L 33.5 10.148438 C 33.5 10.027344 33.457031 9.925781 33.371094 9.839844 C 33.285156 9.753906 33.183594 9.710938 33.0625 9.710938 C 32.941406 9.710938 32.835938 9.753906 32.75 9.839844 C 32.664062 9.925781 32.621094 10.027344 32.621094 10.148438 L 32.621094 14.53125 C 32.621094 14.652344 32.664062 14.753906 32.75 14.839844 C 32.835938 14.925781 32.941406 14.96875 33.0625 14.96875 Z M 33.0625 14.96875 " fill-opacity="1" fill-rule="nonzero"/></g><g clip-path="url(#244be6a16a)"><path fill="#2a3472" d="M 26.925781 14.96875 C 27.046875 14.96875 27.152344 14.925781 27.238281 14.839844 C 27.324219 14.753906 27.367188 14.652344 27.367188 14.53125 L 27.367188 10.148438 C 27.367188 10.027344 27.324219 9.925781 27.238281 9.839844 C 27.152344 9.753906 27.046875 9.710938 26.925781 9.710938 C 26.804688 9.710938 26.703125 9.753906 26.617188 9.839844 C 26.53125 9.925781 26.488281 10.027344 26.488281 10.148438 L 26.488281 14.53125 C 26.488281 14.652344 26.53125 14.753906 26.617188 14.839844 C 26.703125 14.925781 26.804688 14.96875 26.925781 14.96875 Z M 26.925781 14.96875 " fill-opacity="1" fill-rule="nonzero"/></g><g clip-path="url(#3bf9f28826)"><path fill="#2a3472" d="M 36.082031 13.25 C 35.574219 12.367188 34.910156 11.632812 34.082031 11.039062 L 34.082031 14.53125 C 34.082031 14.664062 34.058594 14.796875 34.003906 14.921875 C 33.953125 15.046875 33.878906 15.15625 33.785156 15.253906 C 33.6875 15.347656 33.578125 15.421875 33.453125 15.472656 C 33.328125 15.527344 33.195312 15.550781 33.0625 15.550781 C 32.925781 15.550781 32.796875 15.527344 32.667969 15.472656 C 32.542969 15.421875 32.433594 15.347656 32.339844 15.253906 C 32.242188 15.15625 32.167969 15.046875 32.117188 14.921875 C 32.066406 14.796875 32.039062 14.664062 32.039062 14.53125 L 32.039062 10.148438 C 32.039062 10.109375 32.039062 10.074219 32.046875 10.035156 C 31.753906 9.949219 31.460938 9.878906 31.164062 9.832031 L 31.164062 14.382812 C 31.164062 14.539062 31.132812 14.6875 31.074219 14.832031 C 31.015625 14.972656 30.929688 15.101562 30.820312 15.210938 C 30.710938 15.320312 30.585938 15.402344 30.441406 15.464844 C 30.296875 15.523438 30.148438 15.550781 29.996094 15.550781 C 29.839844 15.550781 29.691406 15.523438 29.546875 15.464844 C 29.402344 15.402344 29.277344 15.320312 29.167969 15.210938 C 29.058594 15.101562 28.972656 14.972656 28.914062 14.832031 C 28.855469 14.6875 28.824219 14.539062 28.824219 14.382812 L 28.824219 9.832031 C 28.527344 9.878906 28.234375 9.949219 27.941406 10.035156 C 27.949219 10.074219 27.949219 10.109375 27.949219 10.148438 L 27.949219 14.53125 C 27.949219 14.664062 27.921875 14.796875 27.871094 14.921875 C 27.820312 15.046875 27.746094 15.15625 27.648438 15.253906 C 27.554688 15.347656 27.445312 15.421875 27.320312 15.472656 C 27.191406 15.527344 27.0625 15.550781 26.925781 15.550781 C 26.792969 15.550781 26.660156 15.527344 26.535156 15.472656 C 26.410156 15.421875 26.300781 15.347656 26.203125 15.253906 C 26.109375 15.15625 26.035156 15.046875 25.984375 14.921875 C 25.929688 14.796875 25.90625 14.664062 25.90625 14.53125 L 25.90625 11.039062 C 25.03125 11.664062 24.335938 12.449219 23.824219 13.398438 C 23.3125 14.34375 23.035156 15.351562 22.992188 16.429688 L 36.996094 16.429688 C 36.949219 15.292969 36.644531 14.234375 36.082031 13.25 Z M 36.082031 13.25 " fill-opacity="1" fill-rule="nonzero"/></g><g clip-path="url(#a3ccbd5c86)"><path fill="#2a3472" d="M 29.996094 14.96875 C 30.15625 14.96875 30.292969 14.910156 30.40625 14.796875 C 30.519531 14.683594 30.578125 14.542969 30.578125 14.382812 L 30.578125 9.710938 C 30.578125 9.550781 30.519531 9.410156 30.40625 9.296875 C 30.292969 9.183594 30.15625 9.125 29.996094 9.125 C 29.832031 9.125 29.695312 9.183594 29.582031 9.296875 C 29.46875 9.410156 29.410156 9.550781 29.410156 9.710938 L 29.410156 14.382812 C 29.410156 14.542969 29.46875 14.683594 29.582031 14.796875 C 29.695312 14.910156 29.832031 14.96875 29.996094 14.96875 Z M 29.996094 14.96875 " fill-opacity="1" fill-rule="nonzero"/></g><g clip-path="url(#b7802fbd3b)"><path fill="#2a3472" d="M 36.417969 19.03125 L 36.417969 18.472656 L 34.042969 18.472656 C 33.972656 18.960938 33.816406 19.417969 33.582031 19.847656 C 33.347656 20.28125 33.042969 20.65625 32.671875 20.980469 C 32.300781 21.300781 31.882812 21.546875 31.421875 21.71875 C 30.960938 21.890625 30.484375 21.976562 29.996094 21.976562 C 29.503906 21.976562 29.027344 21.890625 28.566406 21.71875 C 28.105469 21.546875 27.6875 21.300781 27.316406 20.980469 C 26.945312 20.65625 26.640625 20.28125 26.40625 19.847656 C 26.171875 19.417969 26.015625 18.960938 25.945312 18.472656 L 23.570312 18.472656 L 23.570312 19.03125 C 23.570312 19.117188 23.535156 19.1875 23.472656 19.246094 L 22.457031 20.164062 L 23.054688 21.609375 L 24.960938 21.511719 C 25.046875 21.507812 25.121094 21.535156 25.183594 21.597656 L 26.285156 22.699219 C 26.347656 22.761719 26.375 22.835938 26.371094 22.921875 L 26.273438 24.828125 L 27.71875 25.425781 L 29 24.007812 C 29.054688 23.945312 29.128906 23.914062 29.214844 23.914062 L 30.773438 23.914062 C 30.859375 23.914062 30.933594 23.945312 30.992188 24.007812 L 32.269531 25.425781 L 33.714844 24.828125 L 33.617188 22.921875 C 33.613281 22.835938 33.640625 22.761719 33.703125 22.699219 L 34.804688 21.597656 C 34.867188 21.535156 34.941406 21.507812 35.027344 21.511719 L 36.933594 21.609375 L 37.53125 20.164062 L 36.515625 19.246094 C 36.453125 19.1875 36.417969 19.117188 36.417969 19.03125 Z M 26.484375 21.8125 L 26.070312 21.398438 L 26.484375 20.988281 L 26.894531 21.398438 Z M 30.285156 23.144531 L 29.703125 23.144531 L 29.703125 22.5625 L 30.285156 22.5625 Z M 33.503906 21.8125 L 33.09375 21.398438 L 33.503906 20.988281 L 33.917969 21.398438 Z M 33.503906 21.8125 " fill-opacity="1" fill-rule="nonzero"/></g><g clip-path="url(#aaf059edc5)"><path fill="#2a3472" d="M 37.734375 17.011719 L 22.253906 17.011719 C 22.132812 17.011719 22.03125 17.054688 21.945312 17.140625 C 21.859375 17.226562 21.816406 17.328125 21.816406 17.449219 C 21.816406 17.570312 21.859375 17.675781 21.945312 17.761719 C 22.03125 17.84375 22.132812 17.886719 22.253906 17.886719 L 37.734375 17.886719 C 37.855469 17.886719 37.957031 17.84375 38.042969 17.761719 C 38.128906 17.675781 38.171875 17.570312 38.171875 17.449219 C 38.171875 17.328125 38.128906 17.226562 38.042969 17.140625 C 37.957031 17.054688 37.855469 17.011719 37.734375 17.011719 Z M 37.734375 17.011719 " fill-opacity="1" fill-rule="nonzero"/></g><g fill="#ff914d" fill-opacity="1"><g transform="translate(16.844205, 23.052545)"><g><path d="M 0.546875 -3.109375 C 0.648438 -3.109375 0.738281 -3.117188 0.8125 -3.140625 C 0.882812 -3.160156 0.941406 -3.191406 0.984375 -3.234375 C 1.023438 -3.273438 1.054688 -3.320312 1.078125 -3.375 C 1.109375 -3.4375 1.132812 -3.492188 1.15625 -3.546875 L 1.53125 -3.546875 L 1.53125 0 L 0.984375 0 L 0.984375 -2.71875 L 0.546875 -2.71875 Z M 0.546875 -3.109375 "/></g></g></g><g fill="#ff914d" fill-opacity="1"><g transform="translate(18.90269, 23.052545)"><g><path d="M 1.84375 -0.890625 C 1.84375 -0.585938 1.769531 -0.351562 1.625 -0.1875 C 1.488281 -0.03125 1.273438 0.046875 0.984375 0.046875 C 0.710938 0.046875 0.503906 -0.03125 0.359375 -0.1875 C 0.222656 -0.34375 0.15625 -0.566406 0.15625 -0.859375 L 0.15625 -0.9375 L 0.6875 -0.9375 L 0.6875 -0.8125 C 0.6875 -0.6875 0.710938 -0.597656 0.765625 -0.546875 C 0.816406 -0.492188 0.882812 -0.46875 0.96875 -0.46875 C 1.070312 -0.46875 1.148438 -0.5 1.203125 -0.5625 C 1.253906 -0.625 1.28125 -0.738281 1.28125 -0.90625 L 1.28125 -1.546875 C 1.1875 -1.335938 1.015625 -1.234375 0.765625 -1.234375 C 0.554688 -1.234375 0.398438 -1.300781 0.296875 -1.4375 C 0.191406 -1.582031 0.140625 -1.785156 0.140625 -2.046875 L 0.140625 -2.703125 C 0.140625 -2.992188 0.210938 -3.210938 0.359375 -3.359375 C 0.503906 -3.515625 0.71875 -3.59375 1 -3.59375 C 1.269531 -3.59375 1.476562 -3.515625 1.625 -3.359375 C 1.769531 -3.210938 1.84375 -2.992188 1.84375 -2.703125 Z M 1 -1.75 C 1.082031 -1.75 1.148438 -1.773438 1.203125 -1.828125 C 1.253906 -1.878906 1.28125 -1.96875 1.28125 -2.09375 L 1.28125 -2.734375 C 1.28125 -2.867188 1.253906 -2.957031 1.203125 -3 C 1.148438 -3.050781 1.082031 -3.078125 1 -3.078125 C 0.90625 -3.078125 0.832031 -3.050781 0.78125 -3 C 0.726562 -2.957031 0.703125 -2.867188 0.703125 -2.734375 L 0.703125 -2.09375 C 0.703125 -1.96875 0.726562 -1.878906 0.78125 -1.828125 C 0.832031 -1.773438 0.90625 -1.75 1 -1.75 Z M 1 -1.75 "/></g></g></g><g fill="#ff914d" fill-opacity="1"><g transform="translate(38.934715, 23.052545)"><g><path d="M 1.875 -0.859375 C 1.875 -0.566406 1.800781 -0.34375 1.65625 -0.1875 C 1.507812 -0.03125 1.289062 0.046875 1 0.046875 C 0.71875 0.046875 0.5 -0.03125 0.34375 -0.1875 C 0.195312 -0.34375 0.125 -0.566406 0.125 -0.859375 L 0.125 -1.125 C 0.125 -1.300781 0.148438 -1.453125 0.203125 -1.578125 C 0.265625 -1.703125 0.359375 -1.800781 0.484375 -1.875 C 0.242188 -2 0.125 -2.238281 0.125 -2.59375 L 0.125 -2.703125 C 0.125 -2.992188 0.195312 -3.210938 0.34375 -3.359375 C 0.5 -3.515625 0.71875 -3.59375 1 -3.59375 C 1.289062 -3.59375 1.507812 -3.515625 1.65625 -3.359375 C 1.800781 -3.210938 1.875 -2.992188 1.875 -2.703125 L 1.875 -2.59375 C 1.875 -2.238281 1.757812 -2 1.53125 -1.875 C 1.65625 -1.800781 1.742188 -1.703125 1.796875 -1.578125 C 1.847656 -1.453125 1.875 -1.300781 1.875 -1.125 Z M 0.6875 -0.875 C 0.6875 -0.707031 0.71875 -0.597656 0.78125 -0.546875 C 0.84375 -0.492188 0.914062 -0.46875 1 -0.46875 C 1.09375 -0.46875 1.164062 -0.492188 1.21875 -0.546875 C 1.28125 -0.597656 1.3125 -0.707031 1.3125 -0.875 L 1.3125 -1.203125 C 1.3125 -1.335938 1.285156 -1.4375 1.234375 -1.5 C 1.179688 -1.5625 1.101562 -1.59375 1 -1.59375 C 0.90625 -1.59375 0.828125 -1.5625 0.765625 -1.5 C 0.710938 -1.4375 0.6875 -1.335938 0.6875 -1.203125 Z M 0.6875 -2.484375 C 0.6875 -2.335938 0.71875 -2.238281 0.78125 -2.1875 C 0.84375 -2.132812 0.914062 -2.109375 1 -2.109375 C 1.09375 -2.109375 1.164062 -2.132812 1.21875 -2.1875 C 1.28125 -2.238281 1.3125 -2.335938 1.3125 -2.484375 L 1.3125 -2.6875 C 1.3125 -2.84375 1.28125 -2.945312 1.21875 -3 C 1.164062 -3.0625 1.09375 -3.09375 1 -3.09375 C 0.914062 -3.09375 0.84375 -3.0625 0.78125 -3 C 0.71875 -2.945312 0.6875 -2.84375 0.6875 -2.6875 Z M 0.6875 -2.484375 "/></g></g></g><g fill="#ff914d" fill-opacity="1"><g transform="translate(40.9932, 23.052545)"><g><path d="M 1.84375 -0.890625 C 1.84375 -0.585938 1.769531 -0.351562 1.625 -0.1875 C 1.488281 -0.03125 1.273438 0.046875 0.984375 0.046875 C 0.710938 0.046875 0.503906 -0.03125 0.359375 -0.1875 C 0.222656 -0.34375 0.15625 -0.566406 0.15625 -0.859375 L 0.15625 -0.9375 L 0.6875 -0.9375 L 0.6875 -0.8125 C 0.6875 -0.6875 0.710938 -0.597656 0.765625 -0.546875 C 0.816406 -0.492188 0.882812 -0.46875 0.96875 -0.46875 C 1.070312 -0.46875 1.148438 -0.5 1.203125 -0.5625 C 1.253906 -0.625 1.28125 -0.738281 1.28125 -0.90625 L 1.28125 -1.546875 C 1.1875 -1.335938 1.015625 -1.234375 0.765625 -1.234375 C 0.554688 -1.234375 0.398438 -1.300781 0.296875 -1.4375 C 0.191406 -1.582031 0.140625 -1.785156 0.140625 -2.046875 L 0.140625 -2.703125 C 0.140625 -2.992188 0.210938 -3.210938 0.359375 -3.359375 C 0.503906 -3.515625 0.71875 -3.59375 1 -3.59375 C 1.269531 -3.59375 1.476562 -3.515625 1.625 -3.359375 C 1.769531 -3.210938 1.84375 -2.992188 1.84375 -2.703125 Z M 1 -1.75 C 1.082031 -1.75 1.148438 -1.773438 1.203125 -1.828125 C 1.253906 -1.878906 1.28125 -1.96875 1.28125 -2.09375 L 1.28125 -2.734375 C 1.28125 -2.867188 1.253906 -2.957031 1.203125 -3 C 1.148438 -3.050781 1.082031 -3.078125 1 -3.078125 C 0.90625 -3.078125 0.832031 -3.050781 0.78125 -3 C 0.726562 -2.957031 0.703125 -2.867188 0.703125 -2.734375 L 0.703125 -2.09375 C 0.703125 -1.96875 0.726562 -1.878906 0.78125 -1.828125 C 0.832031 -1.773438 0.90625 -1.75 1 -1.75 Z M 1 -1.75 "/></g></g></g><path stroke-linecap="round" transform="matrix(0.742924, 0, 0, 0.742924, 5.973518, 25.062844)" fill="none" stroke-linejoin="miter" d="M 0.498344 0.499041 L 24.022353 0.499041 " stroke="#2a3472" stroke-width="1" stroke-opacity="1" stroke-miterlimit="4"/><path stroke-linecap="round" transform="matrix(0.742924, 0, 0, 0.742924, 35.809908, 25.062844)" fill="none" stroke-linejoin="miter" d="M 0.497736 0.499041 L 24.021745 0.499041 " stroke="#2a3472" stroke-width="1" stroke-opacity="1" stroke-miterlimit="4"/></svg>